<?xml version="1.0" encoding="utf-8"?>
<!-- Generator: Adobe Illustrator 15.0.0, SVG Export Plug-In  -->
<!DOCTYPE svg PUBLIC "-//W3C//DTD SVG 1.1//EN" "http://www.w3.org/Graphics/SVG/1.1/DTD/svg11.dtd" [
	<!ENTITY ns_flows "http://ns.adobe.com/Flows/1.0/">
]>
<svg version="1.1"
	 xmlns="http://www.w3.org/2000/svg" xmlns:xlink="http://www.w3.org/1999/xlink" xmlns:a="http://ns.adobe.com/AdobeSVGViewerExtensions/3.0/"
	 x="0px" y="0px" width="641px" height="280px" viewBox="-0.5 -0.5 641 280"
	 overflow="visible" enable-background="new -0.5 -0.5 641 280" xml:space="preserve">
<defs>
</defs>
<path fill="#FFFDFD" d="M639.587,278.943H0V0h639.587V278.943z M8.975,269.98h621.641V8.974H8.975V269.98z"/>
<path fill="#FFFDFD" d="M91.162,183.854h-1.933c-12.605,0-29.021-7.152-34.619-17.584c-1.502-2.363,2.989-3.988,4.3-1.642
	c4.905,9,19.423,15.472,30.319,15.472h1.933c15.999,0,29.649-6.472,29.649-20.32c0-15.646-15.809-19.441-31.383-21.945
	c-12.162-1.982-31.396-6.5-31.396-20.143v-1.639c0-14.729,16.253-21.037,30.96-21.037h1.294c13.026,0,21.991,4.844,28.586,9.705
	c2.366,1.822-0.622,4.693-2.98,2.9c-6.408-4.705-14.511-8.852-25.605-8.852h-1.294c-12.153,0-26.671,4.867-26.671,17.283v1.639
	c0,9.516,14.707,14.365,27.742,16.721c17.729,3.07,35.235,6.646,35.235,25.366C125.3,176.843,107.982,183.854,91.162,183.854z"/>
<path fill="#FFFDFD" d="M91.162,185.682h-1.933c-12.639,0-30.085-7.105-36.174-18.609c-0.661-0.975-0.708-2.234-0.125-3.297
	c0.688-1.242,2.222-2.074,3.887-2.074c1.564,0,2.962,0.779,3.67,2.047c4.657,8.568,18.879,14.543,28.741,14.543h1.933
	c13.443,0,27.866-4.873,27.866-18.512c0-14.166-14.78-17.738-29.884-20.187c-8.124-1.309-32.894-5.361-32.894-21.902v-1.639
	c0-15.688,16.987-22.846,32.743-22.846h1.294c14.307,0,23.771,5.764,29.646,10.062c1.404,1.049,1.902,2.583,1.446,4.041
	c-0.824,2.432-4.299,3.447-6.577,1.73c-4.948-3.6-12.882-8.45-24.516-8.45h-1.294c-9.238,0-24.884,3.259-24.884,15.462v1.639
	c0,8.912,16.47,13.172,26.296,14.965c16.34,2.809,36.672,6.33,36.672,27.122C127.078,178.891,107.717,185.682,91.162,185.682z
	 M56.818,165.268c-0.367,0-0.711,0.2-0.747,0.268c5.451,9.83,21.494,16.537,33.158,16.537h1.933
	c14.926,0,32.346-5.824,32.346-22.293c0-11.066-6.586-16.43-16.728-19.752c8.51,3.145,15.814,8.756,15.814,19.752
	c0,13.432-12.351,22.127-31.434,22.127h-1.932c-11.098,0-26.536-6.619-31.917-16.4C57.229,165.345,57.088,165.268,56.818,165.268z
	 M88.993,96.821c-14.512,0-29.174,5.955-29.174,19.23v1.639c0,8.227,7.99,13.9,24.348,17.334
	c-15.492-3.62-23.627-9.557-23.627-17.334v-1.639c0-13.178,14.273-19.059,28.454-19.059h1.294c12.671,0,21.298,5.229,26.661,9.184
	c0.538,0.377,0.979,0.072,1.024,0.006c-5.611-4.047-14.458-9.361-27.686-9.361H88.993z"/>
<path fill="#FFFDFD" d="M181.783,183.854h-2.358c-17.699,0-32.023-12.019-32.023-26.943v-34.92
	c0-14.936,14.325-26.975,32.023-26.975h2.358c17.5,0,32.017,12.039,32.017,26.975v34.92
	C213.8,171.835,199.476,183.854,181.783,183.854z M209.312,121.989c0-12.781-12.393-23.221-27.528-23.221h-2.358
	c-15.146,0-27.532,10.439-27.532,23.221v34.92c0,12.76,12.387,23.188,27.532,23.188h2.358c15.136,0,27.528-10.43,27.528-23.188
	V121.989L209.312,121.989z"/>
<path fill="#FFFDFD" d="M181.783,185.682h-2.358c-18.647,0-33.807-12.935-33.807-28.771v-34.92
	c0-15.842,15.159-28.783,33.807-28.783h2.358c18.644,0,33.804,12.941,33.804,28.783v34.92
	C215.587,172.747,200.427,185.682,181.783,185.682z M179.425,96.821c-16.656,0-30.243,11.268-30.243,25.168v34.92
	c0,13.858,13.586,25.161,30.243,25.161h2.358c16.649,0,30.228-11.303,30.228-25.161v-34.92c0-13.9-13.578-25.168-30.228-25.168
	H179.425z M181.783,181.905h-2.358c-16.194,0-29.324-11.22-29.324-24.996v-34.92c0-13.777,13.13-24.996,29.324-24.996h2.358
	c16.146,0,29.317,11.219,29.317,24.996v34.92C211.102,170.688,197.929,181.905,181.783,181.905z M179.425,100.59
	c-14.206,0-25.757,9.614-25.757,21.399v34.92c0,11.789,11.551,21.381,25.757,21.381h2.358c14.196,0,25.744-9.592,25.744-21.381
	v-34.92c0-11.785-11.548-21.399-25.744-21.399H179.425z"/>
<path fill="#FFFDFD" d="M298.403,95.015c-1.067,0-2.127,0.729-2.127,1.973v11.137v12.26v37.75v2.68
	c-1.51,10.791-13.43,19.285-27.587,19.285h-2.353c-15.143,0-27.541-10.43-27.541-23.399V96.987c0-1.244-1.062-1.973-2.364-1.973
	c-1.055,0-2.122,0.729-2.122,1.973v59.711c0,15.137,14.325,27.153,32.026,27.153h2.353c11.596,0,23.373-5.25,27.587-12.822v23.63
	c0,12.766-12.395,23.186-27.54,23.186h-2.354c-13.444,0-26.271-6.081-29.665-15.438c-0.427-1.07-1.292-1.427-2.16-1.427
	c-1.066,0-2.313,0.715-2.313,1.799c0,0.345,0,0.5,0.195,0.695c4.047,11.51,19.433,18.164,33.943,18.164h2.354
	c17.698,0,32.016-12.055,32.016-26.979V96.987C300.751,95.743,299.462,95.015,298.403,95.015z"/>
<path fill="#FFFDFD" d="M268.736,223.425h-2.354c-14.2,0-30.856-6.521-35.537-19.045c-0.433-0.596-0.433-1.229-0.433-1.6
	c0-2.162,2.175-3.634,4.145-3.634c1.777,0,3.186,0.986,3.816,2.607c3.048,8.299,14.801,14.312,28.009,14.312h2.354
	c14.213,0,25.755-9.594,25.755-21.408V176.23c-5.811,5.662-15.724,9.449-25.802,9.449h-2.353c-18.656,0-33.808-13.021-33.808-28.982
	v-59.71c0-2.104,1.709-3.781,3.902-3.781c2.423,0,4.147,1.598,4.147,3.781v59.711c0,11.903,11.548,21.592,25.757,21.592h2.353
	c13.085,0,24.412-7.779,25.822-17.701l-0.021-2.455V96.987c0-2.104,1.711-3.781,3.913-3.781c2.007,0,4.141,1.441,4.141,3.781v97.672
	C302.543,210.542,287.39,223.425,268.736,223.425z M234.133,202.861v0.007c3.929,11.174,19.188,16.979,32.249,16.979h2.354
	c16.655,0,30.233-11.303,30.233-25.188V96.987c-0.035-0.047-0.29-0.166-0.566-0.166c-0.014,0-0.343,0.006-0.343,0.166v63.826
	c-1.652,12.144-14.307,21.093-29.372,21.093h-2.353c-16.176,0-29.327-11.312-29.327-25.207V96.987
	c-0.024-0.077-0.213-0.166-0.578-0.166c0,0-0.338,0.006-0.338,0.166v59.711c0,14.012,13.581,25.372,30.243,25.372h2.353
	c11.05,0,22.244-5.122,26.009-11.928l3.362-6.082v30.599c0,13.803-13.166,25.012-29.324,25.012h-2.354
	c-14.881,0-27.775-6.844-31.36-16.662C234.899,202.753,234.484,202.695,234.133,202.861z"/>
<path fill="#FFFDFD" d="M354.316,183.854c-13.865,0-24.766-9.343-24.766-21.013V59.405c0-1.273,1.065-1.993,2.125-1.993
	c1.303,0,2.367,0.56,2.367,1.993v103.436c0,9.511,8.965,17.259,20.272,17.259c1.492,0,2.334,0.895,2.334,1.973
	C356.65,182.993,355.81,183.854,354.316,183.854z"/>
<path fill="#FFFDFD" d="M354.316,185.682c-14.914,0-26.551-10.046-26.551-22.841V59.405c0-2.118,1.703-3.783,3.91-3.783
	c2.481,0,4.141,1.521,4.141,3.783v103.436c0,8.519,8.314,15.449,18.5,15.449c2.398,0,4.117,1.599,4.117,3.781
	C358.435,183.825,356.994,185.682,354.316,185.682z M331.677,59.201c0,0-0.332,0.012-0.332,0.204v103.436
	c0,10.787,10.078,19.229,22.973,19.229c0.355,0,0.551-0.118,0.586-0.131c-0.035,0-0.379-0.034-0.586-0.034
	c-12.188,0-22.065-8.552-22.065-19.064V59.405C332.279,59.313,332.119,59.201,331.677,59.201z"/>
<path fill="#FFFDFD" d="M434.357,141.057H374.77v15.854c0,12.76,12.387,23.189,27.529,23.189h2.346
	c11.934,0,22.244-6.673,26.025-15.826c0.229-0.916,1.096-1.277,1.969-1.277c1.254,0,2.51,0.713,2.51,1.793
	c0,0.191-0.148,0.557-0.148,0.746c-4.329,10.604-16.293,18.318-30.354,18.318H402.3c-17.73,0-32.002-12.019-32.002-26.943v-34.92
	c0-14.936,14.707-26.975,32.209-26.975h1.733c17.689,0,32.402,11.168,32.402,26.975v17.074
	C436.644,140.149,435.632,141.057,434.357,141.057z M432.15,121.989c0-12.781-12.334-23.221-27.506-23.221h-2.139
	c-15.14,0-27.736,10.439-27.736,23.221v15.283h57.381V121.989z"/>
<path fill="#FFFDFD" d="M404.646,185.682H402.3c-18.636,0-33.804-12.935-33.804-28.771v-34.92c0-15.842,15.281-28.783,34.011-28.783
	h1.733c19.531,0,34.238,12.375,34.238,28.783v17.074c0,2.111-1.859,3.777-4.121,3.777h-57.785v14.068
	c0,11.789,11.539,21.381,25.728,21.381h2.346c10.939,0,20.754-5.918,24.439-14.703c0.229-1.354,1.655-2.369,3.555-2.369
	c2.469,0,4.344,1.578,4.344,3.57c0,0.396-0.139,0.752-0.24,1l-0.123,0.416C431.979,177.861,419.109,185.682,404.646,185.682z
	 M402.507,96.821c-16.791,0-30.422,11.268-30.422,25.168v34.92c0,13.858,13.569,25.161,30.215,25.161h2.346
	c12.93,0,24.428-6.825,28.59-17.04c0.012-0.06,0.029-0.119,0.055-0.166c-0.159-0.013-0.422-0.076-0.649-0.076
	c-4.519,10.31-15.627,17.117-27.994,17.117H402.3c-16.183,0-29.324-11.22-29.324-24.996V139.27h61.383
	c0.293,0,0.525-0.184,0.566-0.231l-0.019-17.05c0-14.34-13.217-25.168-30.666-25.168H402.507z M433.996,139.058h-61.021V121.99
	c0-13.777,13.25-24.996,29.531-24.996h2.139c16.227,0,29.352,11.219,29.352,24.996L433.996,139.058L433.996,139.058z
	 M376.572,135.493h53.849v-13.504c0-11.785-11.597-21.399-25.775-21.399h-2.139c-14.285,0-25.935,9.614-25.935,21.399V135.493z"/>
<path fill="#FFFDFD" d="M522.66,183.854c-1.008,0-2.125-0.711-2.125-1.947v-59.718c0-12.979-12.575-23.419-27.764-23.419h-2.121
	c-15.195,0-27.783,9.723-27.783,21.615v61.521c0,1.236-1.008,1.947-2.354,1.947c-1.01,0-2.129-0.711-2.129-1.947V96.987
	c0-1.244,1.119-1.793,2.129-1.793c1.348,0,2.354,0.549,2.354,1.793v11.137c4.109-7.718,16.062-13.109,27.783-13.109h2.121
	c17.729,0,32.252,12.039,32.252,27.173v59.718C525.023,183.143,523.773,183.854,522.66,183.854z"/>
<path fill="#FFFDFD" d="M522.66,185.682c-2.205,0-3.936-1.666-3.936-3.775v-59.718c0-11.903-11.619-21.598-25.953-21.598h-2.121
	c-14.061,0-25.945,9.048-25.945,19.794v61.521c0,2.18-1.772,3.774-4.192,3.774c-2.201,0-3.854-1.666-3.854-3.774V96.987
	c0-2.064,1.588-3.582,3.854-3.582c2.506,0,4.192,1.449,4.192,3.582v5.834c5.722-5.77,15.748-9.615,25.945-9.615h2.121
	c18.783,0,34.092,12.995,34.092,28.981v59.718C526.863,184.214,524.697,185.682,522.66,185.682z M490.65,96.993h2.121
	c16.271,0,29.604,11.309,29.604,25.194v59.718c0,0.165,0.285,0.165,0.285,0.165c0.302,0,0.552-0.131,0.562-0.206l-0.012-59.677
	c0-14.011-13.601-25.366-30.439-25.366h-2.121c-11.283,0-22.545,5.232-26.172,12.156l-3.348,6.458v-18.42
	c-0.035,0.025-0.254-0.033-0.619-0.033c-0.156,0-0.328,0.059-0.363,0.092l0.082,84.832c0,0.16,0.275,0.166,0.275,0.166
	c0.405,0,0.606-0.119,0.631-0.131l-0.006-61.558C461.132,107.483,474.369,96.993,490.65,96.993z"/>
<path fill="#FFFDFD" d="M558.265,162.841V99.124h-11.535c-3.242,0-3.242-3.76,0-3.76h11.535V59.213c0-2.523,4.486-2.523,4.486,0
	v36.151h18.967c2.996,0,2.996,3.76,0,3.76h-18.967v63.717c0,9.511,8.764,17.259,20.233,17.259c2.98,0,2.98,3.754,0,3.754
	C568.9,183.854,558.265,174.511,558.265,162.841z"/>
<path fill="#FFFDFD" d="M582.984,185.682c-14.887,0-26.516-10.046-26.516-22.841v-61.877h-9.74c-2.709,0-4.166-1.906-4.166-3.71
	c0-1.786,1.457-3.688,4.166-3.688h9.74V59.213c0-2.095,1.754-3.694,4.053-3.694c2.234,0,3.994,1.6,3.994,3.694v34.353h17.201
	c2.684,0,4.088,1.902,4.088,3.688c0,1.804-1.404,3.71-4.088,3.71h-17.201v61.877c0,8.668,8.109,15.449,18.469,15.449
	c2.66,0,4.076,1.896,4.076,3.674C587.062,183.786,585.646,185.682,582.984,185.682z M546.164,97.28c0.091,0,0.203,0.064,0.564,0.064
	h13.299v65.495c0,10.787,10.146,19.23,22.957,19.23c0.344,0,0.486-0.09,0.516-0.113c-0.028,0-0.172-0.053-0.516-0.053
	c-12.346,0-22.041-8.398-22.041-19.064V97.346h20.773c0.354,0,0.444-0.083,0.444-0.083s-0.09-0.083-0.444-0.083h-20.773V59.213
	c-0.018-0.026-0.871-0.032-0.943,0.027l0.027,37.939h-13.299c-0.398,0-0.51,0.06-0.582,0.101H546.164z"/>
</svg>
